<svg viewBox="0 0 72 72" xmlns="http://www.w3.org/2000/svg"><path d="m43.7 63.9c.3-4.4 1.9-6.6 5.4-10.1 3.3-3.3 5.5-7.4 5.5-12.2 0-9.5-8.3-17.2-18.6-17.2s-18.6 7.7-18.6 17.2c0 4.8 2.2 8.9 5.5 12.2 3.5 3.5 5.1 5.7 5.4 10.1" style="fill:none;stroke:#000;stroke-linecap:round;stroke-linejoin:round;stroke-miterlimit:10;stroke-width:2"/><circle cx="36" cy="36" fill="#fcea2b" r="29"/><path d="m50.7 11c4.8 5.2 7.8 12.1 7.8 19.8 0 16-13 29-29 29-5.4 0-10.4-1.5-14.7-4 5.3 5.6 12.9 9.2 21.2 9.2 16 0 29-13 29-29 0-10.7-5.7-20-14.3-25z" fill="#f1b31c"/><g fill="none" stroke-linecap="round" stroke-linejoin="round" stroke-miterlimit="10" stroke-width="2"><path d="m43.7 63.9c.3-4.4 1.9-6.6 5.4-10.1 3.3-3.3 5.5-7.4 5.5-12.2 0-9.5-8.3-17.2-18.6-17.2s-18.6 7.7-18.6 17.2c0 4.8 2.2 8.9 5.5 12.2 3.5 3.5 5.1 5.7 5.4 10.1" stroke="#fff"/><circle cx="36" cy="36" r="29" stroke="#000"/></g></svg>